<?xml version="1.0" encoding="utf-8"?>
<!-- Generator: Adobe Illustrator 26.3.1, SVG Export Plug-In . SVG Version: 6.00 Build 0)  -->
<svg version="1.1" id="Laag_1" xmlns="http://www.w3.org/2000/svg" xmlns:xlink="http://www.w3.org/1999/xlink" x="0px" y="0px"
	 viewBox="0 0 88.7 34.6" style="enable-background:new 0 0 88.7 34.6;" xml:space="preserve">
<style type="text/css">
	.st0{fill:#1E2A4D;}
	.st1{fill:#E3D3AA;}
	.st2{fill:#A1938D;}
	.st3{fill:#B4C7CD;}
</style>
<g>
	<g transform="matrix(1,0,0,1,-338.43,-169.98)">
		<path class="st0" d="M359.1,203.9h4v-26.3h-4V203.9z M359.1,174.3h4V170h-4V174.3L359.1,174.3z"/>
	</g>
	<g transform="matrix(1,0,0,1,7,10)">
		<g transform="matrix(1,0,0,1,-345.43,-179.98)">
			<path class="st0" d="M338.5,203.9v-19c0.2-4.4,3.9-8,8.4-8c4.4,0,8.1,3.5,8.4,8v19h-4v-18.5c0-2.4-2-4.4-4.4-4.4s-4.4,2-4.4,4.4
				V204h-4V203.9z"/>
		</g>
		<g transform="matrix(1,0,0,1,-345.43,-179.98)">
			<path class="st0" d="M367.1,177.7v19c0.2,4.4,3.9,7.9,8.3,7.9c2.4,0,4.8-1.1,6.4-2.9c1.6,1.9,3.9,3,6.3,2.9
				c4.4,0,8.1-3.5,8.4-7.9v-19h-4v18.6c-0.1,2.4-2.1,4.3-4.4,4.2c-2.2,0-4.1-1.7-4.3-3.9v-19h-4v18.9c-0.2,2.3-2.1,4-4.4,4
				c-2.4,0-4.3-1.9-4.4-4.3v-18.6h-3.9V177.7z"/>
		</g>
		<g transform="matrix(1,0,0,1,-345.43,-179.98)">
			<path class="st1" d="M423,190.8h4c0-7.5-6.2-13.7-13.8-13.7v4C418.6,181.1,423,185.4,423,190.8"/>
		</g>
		<g transform="matrix(1,0,0,1,-345.43,-179.98)">
			<path class="st2" d="M413.3,200.6v4c7.5,0,13.7-6.2,13.7-13.8h-4C423,196.1,418.6,200.6,413.3,200.6"/>
		</g>
		<g transform="matrix(1,0,0,1,-345.43,-179.98)">
			<path class="st3" d="M399.6,190.8c0,7.5,6.1,13.8,13.7,13.8v-4c-5.3,0-9.8-4.4-9.8-9.8h-4H399.6z"/>
		</g>
		<g transform="matrix(1,0,0,1,-345.43,-179.98)">
			<path class="st0" d="M413.2,181.1v-4c-3.4,0-6.7,1.3-9.2,3.5l2.8,2.8C408.6,181.9,410.9,181.1,413.2,181.1 M403.5,190.8
				c0-2.3,0.8-4.6,2.4-6.4l-2.8-2.8c-2.3,2.5-3.5,5.8-3.5,9.2H403.5z"/>
		</g>
	</g>
</g>
</svg>
